# xmcd
#
# Track frame offsets:
#	150
#	16171
#	36788
#	54906
#	73588
#	84663
#	96687
#	114420
#	137602
#	154788
#	174174
#	196854
#
# Disc length: 2819 seconds
#
# Revision: 1
# Processed by: cddbd v1.5.2PL0 Copyright (c) Steve Scherf et al.
# Submitted via: EasyCDDAExtractor 10.0.5.1
#
DISCID=940b010c
DTITLE=Various Artist - Radio Uno Córdoba
DYEAR=2000
DGENRE=Top 40
TTITLE0=Los hermanos - Ana Julia
TTITLE1=Eiffel 65 - Move your body
TTITLE2=ATB - Killer (Version Radio Edit)
TTITLE3=Los Rancheros - Adiós
TTITLE4=Yi - Yi Girls - Get get down
TTITLE5=Facon - Maquillando las noticias
TTITLE6=Bob Marley Vs. Funkstar Deluxe (Radio Deluxe Edit) - Sun is shining (R
TTITLE6=adio de luxe edit)
TTITLE7=Brooke Russell - Hotel california
TTITLE8=Sash - Just Around The Hill (Dance radio edit)
TTITLE9=Lila - Mi canción
TTITLE10=Gregorian - Losing my religión
TTITLE11=Villanos - No disparen
EXTD=
EXTT0=
EXTT1=
EXTT2=
EXTT3=
EXTT4=
EXTT5=
EXTT6=
EXTT7=
EXTT8=
EXTT9=
EXTT10=
EXTT11=
PLAYORDER=
